<?xml version="1.0" encoding="utf-8"?>
<!-- Generator: Adobe Illustrator 23.0.1, SVG Export Plug-In . SVG Version: 6.00 Build 0)  -->
<svg version="1.1" id="Capa_1" xmlns="http://www.w3.org/2000/svg" xmlns:xlink="http://www.w3.org/1999/xlink" x="0px" y="0px"
	 viewBox="0 0 80 80" style="enable-background:new 0 0 80 80;" xml:space="preserve">
<style type="text/css">
	.st0{fill-rule:evenodd;clip-rule:evenodd;fill:url(#SVGID_1_);}
	.st1{fill-rule:evenodd;clip-rule:evenodd;fill:#FEFEFE;}
</style>
<g>
	<linearGradient id="SVGID_1_" gradientUnits="userSpaceOnUse" x1="40" y1="5.1336" x2="40" y2="72.9326">
		<stop  offset="0" style="stop-color:#4E6ABD"/>
		<stop  offset="1" style="stop-color:#3E51A0"/>
	</linearGradient>
	<path class="st0" d="M17.6,0h44.8C72,0,80,7.9,80,17.6v44.8C80,72.1,72,80,62.4,80H17.6C7.9,80,0,72.1,0,62.4V17.6
		C0,7.9,7.9,0,17.6,0L17.6,0z"/>
	<path class="st1" d="M43.8,30.9v-3.9c0-1.9,1.2-2.3,2.1-2.3c0.8,0,5.4,0,5.4,0v-8.3h-7.5c-8.3,0-10.1,6.1-10.1,10.1v4.4H29v5.8v3.8
		h4.8c0,10.9,0,24,0,24h9.6c0,0,0-13.3,0-24h7.1l0.3-3.8l0.6-5.8H43.8z"/>
</g>
</svg>
