<?xml version="1.0" encoding="utf-8"?>
<!-- Generator: Adobe Illustrator 23.0.1, SVG Export Plug-In . SVG Version: 6.00 Build 0)  -->
<svg version="1.1" id="Capa_1" xmlns="http://www.w3.org/2000/svg" xmlns:xlink="http://www.w3.org/1999/xlink" x="0px" y="0px"
	 viewBox="0 0 250 72" style="enable-background:new 0 0 250 72;" xml:space="preserve">
<style type="text/css">
	.st0{fill:none;}
	.st1{fill:#FFFFFF;}
	.st2{fill:#A90E23;}
	.st3{fill:#211915;}
</style>
<g>
	<g>
		<polygon class="st0" points="226,54.5 226,54.5 226.3,49.4 226.5,47.2 218.6,47.2 213.8,54.5 		"/>
		<path class="st0" d="M187.4,54.5l1.4-2.1c-0.9,0.3-1.7,0.6-2.6,0.8c-3,0.7-5.8,1.2-8.4,1.3H187.4z"/>
		<polygon class="st0" points="130,54.5 125.5,40.2 120.3,54.5 		"/>
		<path class="st1" d="M250,0.2h-22.5l-14.2,19.2l-1.7,2.2c0.1-0.8,0.3-1.7,0.3-2.5c0.1-0.8,0.1-1.5,0.1-2.3c0-2.5-0.4-5-1.4-7.3
			c-1.3-3.1-3.7-5.6-6.7-7.1c-3.2-1.7-7-2.2-11.5-2.2h-6.4h-21.9h-18l-5.3,14.5l-4.6-14.5h-6.7h-12.1H89.5l-20.1,0H49.7l-8.1,6.7
			l0.1-0.1L44,0.2H19.8l-1.2,3.2L0,54.6h24.2l4.6-12.6l2.2-1.6L33,54.6h11l17.9,0h25l-3.1,17.1h0l0,0.1h157.7c4.7,0,8.5-3.8,8.5-8.5
			v-0.1c0,0,0,0,0,0v-8.7h0L250,0.2z M226.5,47.2l-0.1,2.2l-0.3,5.1h0h-12.3l4.9-7.3H226.5z M188.9,52.4l-1.4,2.1h-9.6
			c2.6-0.1,5.3-0.6,8.4-1.3C187.1,53,188,52.7,188.9,52.4z M130,54.5h-9.7l5.2-14.3L130,54.5z"/>
	</g>
	<g>
		<polygon class="st2" points="73.9,4.9 110.9,4.9 107.5,14.4 84.3,14.4 81.7,21.4 103.2,21.4 99.9,30.5 78.4,30.5 75.2,39.3 
			99.1,39.3 95.4,49.4 57.7,49.4 73.9,4.9 		"/>
	</g>
	<polygon class="st2" points="119.1,4.9 131.9,4.9 139.8,29.5 148.8,4.9 161.8,4.9 145.6,49.4 132.5,49.4 124.7,24.9 115.8,49.4 
		102.9,49.4 119.1,4.9 	"/>
	<path class="st2" d="M184.7,15c3.6,0,5.8,0.9,6.7,2.6c0.9,1.7,0.5,5-1.2,9.7c-1.3,3.6-2.6,6.2-3.9,7.8c-1.3,1.6-2.6,2.7-4.1,3.3
		c-1.5,0.6-3.6,1-6.5,1h-3.4l8.9-24.4H184.7L184.7,15z M154.8,49.4h20.5c2.5,0,5.3-0.4,8.7-1.2c2.4-0.6,4.9-1.8,7.5-3.5
		c2.6-1.8,4.9-4,6.9-6.6c2-2.6,3.9-6.3,5.7-11.1c1.1-3,1.8-5.9,2-8.6c0.3-2.7-0.1-5.1-0.9-7.1c-0.9-2-2.4-3.6-4.5-4.7
		c-2.1-1.1-5.2-1.6-9.2-1.6h-20.5L154.8,49.4L154.8,49.4z"/>
	<path class="st2" d="M221.4,32.4l10.7-16l-1,16H221.4L221.4,32.4z M230.2,49.4h13.9l0-44.6H229l-33,44.6h14.1l4.9-7.3h15.6
		L230.2,49.4L230.2,49.4z"/>
	<g>
		<polygon class="st2" points="22.1,4.9 36,4.9 29.8,21.7 50.4,4.9 68.7,4.9 46.4,21.6 53.2,49.4 36.2,49.4 33.5,31.2 23.7,38.7 
			19.7,49.4 5.9,49.4 22.1,4.9 		"/>
	</g>
	<g>
		<path class="st3" d="M91.2,59.3h2.6l-1.3,6.3h3.8l-0.5,2.2h-6.4L91.2,59.3z"/>
		<path class="st3" d="M98.4,59.3h2.6l-1.3,6.3h3.8l-0.5,2.2h-6.4L98.4,59.3z"/>
		<path class="st3" d="M108,59.3h2.6l1.3,8.5h-2.6l-0.1-1.2h-2.8l-0.7,1.2h-2.7L108,59.3z M107.4,64.7h1.6l-0.3-2.5h0L107.4,64.7z"
			/>
		<path class="st3" d="M114.2,59.3h2.6l1.6,4.6h0l1-4.6h2.5l-1.8,8.5h-2.6L116,63h0l-1,4.8h-2.5L114.2,59.3z"/>
		<path class="st3" d="M124.6,61.4h-2.4l0.5-2.2h7.3l-0.5,2.2h-2.4l-1.3,6.3h-2.6L124.6,61.4z"/>
		<path class="st3" d="M132.1,59.3h2.6l1.3,8.5h-2.6l-0.1-1.2h-2.8l-0.7,1.2h-2.7L132.1,59.3z M131.5,64.7h1.6l-0.3-2.5h0
			L131.5,64.7z"/>
		<path class="st3" d="M142.1,61.8c0-0.3-0.1-0.6-0.3-0.7c-0.2-0.1-0.5-0.2-0.8-0.2c-0.4,0-1,0.1-1,0.7c0,0.6,1.3,0.7,2.1,1
			c1.5,0.5,2,1.3,2,2.3c0,2-2,3-3.8,3c-1.9,0-3.7-0.9-3.6-3.1h2.5c0,0.5,0.1,0.7,0.3,1c0.2,0.2,0.5,0.2,1,0.2c0.5,0,1.1-0.3,1.1-0.8
			c0-0.6-0.9-0.7-2-1.1c-1-0.3-2-0.9-2-2.3c0-1.9,1.9-2.8,3.6-2.8c1.8,0,3.4,0.7,3.4,2.8H142.1z"/>
		<path class="st3" d="M151,64.6l-1.8-5.4h2.6l0.8,3.2l2.1-3.2h3.1l-4.1,5.3l-0.6,3.1h-2.6L151,64.6z"/>
		<path class="st3" d="M162.1,59.3h2.6l1.6,4.6h0l1-4.6h2.5l-1.8,8.5h-2.6l-1.6-4.8h0l-1,4.8h-2.5L162.1,59.3z"/>
		<path class="st3" d="M171.2,59.3h7l-0.4,2.2h-4.4l-0.2,1.1h4.1l-0.4,2h-4.1l-0.2,1.1h4.5l-0.5,2.2h-7.1L171.2,59.3z"/>
		<path class="st3" d="M186,64.9c-0.5,2.1-2,3.1-4.2,3.1c-2.5,0-3.6-1.2-3.6-2.6c0-0.2,0.1-0.5,0.1-0.7l1.1-5.4h2.6l-1,4.6
			c-0.1,0.3-0.1,0.7-0.1,0.8c0,0.3-0.1,1.1,1,1.1c1.1,0,1.4-1,1.6-1.9l1-4.7h2.6L186,64.9z"/>
		<path class="st3" d="M188.6,59.3h3.6l0.1,4.6h0l2.3-4.6h3.7l-1.8,8.5h-2.4l1.3-5.8h0l-2.8,5.8h-1.9l-0.3-5.8h0l-1.2,5.8h-2.4
			L188.6,59.3z"/>
		<path class="st3" d="M202.1,59.3h2.6l1.3,8.5h-2.6l-0.1-1.2h-2.8l-0.7,1.2h-2.7L202.1,59.3z M201.5,64.7h1.6l-0.3-2.5h0
			L201.5,64.7z M203.3,56.9h2.5l-2.2,1.7H202L203.3,56.9z"/>
		<path class="st3" d="M209.7,61.4h-2.4l0.5-2.2h7.3l-0.5,2.2h-2.4l-1.3,6.3h-2.6L209.7,61.4z"/>
		<path class="st3" d="M216,59.3h2.6l-1.8,8.5h-2.6L216,59.3z"/>
		<path class="st3" d="M226.8,64.5c-0.2,0.9-0.8,3.4-4.3,3.4c-2.5,0-3.6-1.6-3.6-3.9c0-2.7,1.7-5,4.6-5c1.9,0,3.6,0.8,3.6,3.4h-2.5
			c0-0.8-0.4-1.2-1.2-1.2c-1.4,0-2,1.7-2,2.9c0,0.7,0.2,1.8,1.4,1.8c0.8,0,1.3-0.6,1.4-1.3H226.8z"/>
		<path class="st3" d="M232.6,59.1c2.4,0,3.9,1.1,3.9,3.7c0,2.9-1.9,5.2-4.8,5.2c-2.4,0-3.9-1.3-3.9-3.7
			C227.8,61.4,229.7,59.1,232.6,59.1z M231.7,65.8c1.6,0,2.1-1.9,2.1-3.1c0-0.8-0.3-1.5-1.3-1.5c-1.6,0-2.1,1.9-2.1,3.1
			C230.4,65.1,230.7,65.8,231.7,65.8z"/>
		<path class="st3" d="M242.2,61.8c0-0.3-0.1-0.6-0.3-0.7c-0.2-0.1-0.5-0.2-0.8-0.2c-0.4,0-1,0.1-1,0.7c0,0.6,1.3,0.7,2.1,1
			c1.5,0.5,2,1.3,2,2.3c0,2-2,3-3.8,3c-1.9,0-3.7-0.9-3.6-3.1h2.5c0,0.5,0.1,0.7,0.3,1c0.2,0.2,0.5,0.2,1,0.2c0.5,0,1.1-0.3,1.1-0.8
			c0-0.6-0.9-0.7-2-1.1c-1-0.3-2-0.9-2-2.3c0-1.9,1.9-2.8,3.6-2.8c1.8,0,3.4,0.7,3.4,2.8H242.2z"/>
	</g>
</g>
</svg>
