<?xml version="1.0" encoding="utf-8"?>
<!-- Generator: Adobe Illustrator 23.0.1, SVG Export Plug-In . SVG Version: 6.00 Build 0)  -->
<svg version="1.1" id="Capa_1" xmlns="http://www.w3.org/2000/svg" xmlns:xlink="http://www.w3.org/1999/xlink" x="0px" y="0px"
	 viewBox="0 0 80 80" style="enable-background:new 0 0 80 80;" xml:space="preserve">
<style type="text/css">
	.st0{fill-rule:evenodd;clip-rule:evenodd;fill:#FF0000;}
	.st1{fill:#FFFFFF;}
</style>
<g>
	<g>
		<path class="st0" d="M17.6,0h44.8C72,0,80,8,80,17.6v44.7C80,72,72,80,62.4,80H17.6C8,80,0,72,0,62.3V17.6C0,8,8,0,17.6,0L17.6,0z
			"/>
	</g>
</g>
<g>
	<g>
		
			<image style="overflow:visible;opacity:0.5;" width="61" height="52" xlink:href="EE32B53D.png"  transform="matrix(1 0 0 1 9.8934 -1.1066)">
		</image>
		<g>
			<g>
				<path class="st1" d="M47.2,33.7c0.9,0,2.2-0.5,3.5-2v1.8h3V17.3h-3v12.3c-0.4,0.5-1.2,1.2-1.8,1.2c-0.6,0-0.8-0.4-0.8-1.1V17.3
					h-3v13.5C45.1,32.5,45.6,33.7,47.2,33.7z"/>
				<path class="st1" d="M33.8,29.5c0,2.9,1.5,4.3,4.4,4.3c2.4,0,4.3-1.6,4.3-4.3v-7.9c0-2.5-1.9-4.3-4.3-4.3
					c-2.7,0-4.4,1.7-4.4,4.3V29.5z M36.9,21.8c0-0.9,0.4-1.5,1.3-1.5c0.9,0,1.3,0.6,1.3,1.5v7.5c0,0.9-0.4,1.5-1.3,1.5
					c-0.8,0-1.3-0.7-1.3-1.5V21.8z"/>
				<polygon class="st1" points="26.6,33.5 30,33.5 30,24.6 34,11.6 30.5,11.6 28.3,20.3 26,11.6 22.6,11.6 26.6,24.6 				"/>
			</g>
		</g>
	</g>
	<g>
		
			<image style="overflow:visible;opacity:0.5;" width="80" height="61" xlink:href="EE32B53F.png"  transform="matrix(1 0 0 1 1.8934 23.8934)">
		</image>
		<g>
			<g>
				<path class="st1" d="M57.7,37.2H22.3c-3.8,0-6.9,3.1-6.9,6.9v17.4c0,3.8,3.1,6.9,6.9,6.9h35.5c3.8,0,6.9-3.1,6.9-6.9V44.1
					C64.6,40.3,61.5,37.2,57.7,37.2z M27,63.3h-3.2V45.4h-3.3v-3h9.9v3H27V63.3z M38.5,63.3h-2.9v-1.7c-0.5,0.6-1.1,1.1-1.7,1.4
					c-1.5,0.9-3.7,0.9-3.7-2.3V47.8h2.9v11.8c0,0.6,0.2,1,0.8,1c0.6,0,1.3-0.7,1.7-1.2V47.8h2.9V63.3z M49.5,60.1
					c0,1.9-0.7,3.4-2.6,3.4c-1,0-1.9-0.4-2.7-1.4v1.2h-2.9V42.4h2.9v6.7c0.6-0.8,1.5-1.4,2.5-1.4c2.1,0,2.8,1.8,2.8,3.9V60.1z
					 M60.1,55.9h-5.5v2.9c0,1.2,0.1,2.2,1.3,2.2c1.2,0,1.3-0.8,1.3-2.2v-1.1h3v1.2c0,3-1.3,4.8-4.3,4.8c-2.7,0-4.1-2-4.1-4.8V52
					c0-2.7,1.8-4.5,4.3-4.5c2.8,0,4.1,1.7,4.1,4.5V55.9z"/>
				<path class="st1" d="M55.9,50.2c-1.1,0-1.3,0.7-1.3,1.8v1.6h2.5V52C57.1,50.9,56.9,50.2,55.9,50.2z"/>
				<path class="st1" d="M44.8,50.3c-0.2,0.1-0.4,0.3-0.6,0.5v9.6c0.2,0.3,0.5,0.4,0.7,0.5c0.5,0.2,1.2,0.3,1.5-0.2
					c0.2-0.2,0.3-0.6,0.3-1.1v-8c0-0.5-0.1-0.9-0.3-1.2C45.9,50,45.3,50,44.8,50.3z"/>
			</g>
		</g>
	</g>
</g>
</svg>
